<svg width="182" height="58" viewBox="0 0 182 58" fill="none" xmlns="http://www.w3.org/2000/svg">
<g filter="url(#filter0_d_203_2409)">
<path d="M176.115 44.2337C176.115 46.8982 173.912 49.0566 171.187 49.0566H9.89646C7.17248 49.0566 4.96143 46.8982 4.96143 44.2337V5.77256C4.96143 3.10926 7.17248 0.943359 9.89646 0.943359H171.185C173.912 0.943359 176.114 3.10926 176.114 5.77256L176.115 44.2337Z" fill="black"/>
<path d="M170.667 1.00156C173.635 1.00156 176.05 3.35625 176.05 6.25V43.75C176.05 46.6438 173.635 48.9984 170.667 48.9984H10.4103C7.44231 48.9984 5.02724 46.6438 5.02724 43.75V6.25C5.02724 3.35625 7.44231 1.00156 10.4103 1.00156H170.667ZM170.667 3.8147e-06H10.4103C6.88622 3.8147e-06 4 2.81407 4 6.25V43.75C4 47.1859 6.88622 50 10.4103 50H170.667C174.191 50 177.077 47.1859 177.077 43.75V6.25C177.077 2.81407 174.191 3.8147e-06 170.667 3.8147e-06Z" fill="#A6A6A6"/>
<path d="M42.6257 24.73C42.5885 20.7012 46.009 18.7412 46.1654 18.65C44.2282 15.8962 41.2257 15.52 40.1705 15.49C37.6487 15.2312 35.2026 16.9612 33.918 16.9612C32.6077 16.9612 30.6295 15.515 28.4975 15.5575C25.7539 15.5987 23.1872 17.1475 21.7795 19.5525C18.8744 24.4562 21.0411 31.6625 23.8244 35.6262C25.2167 37.5675 26.8436 39.735 28.9731 39.6587C31.0564 39.575 31.8346 38.3637 34.3487 38.3637C36.8398 38.3637 37.5705 39.6587 39.7423 39.61C41.9782 39.575 43.3859 37.66 44.7295 35.7012C46.3385 33.4762 46.9846 31.285 47.0103 31.1725C46.9577 31.155 42.668 29.5587 42.6257 24.73Z" fill="white"/>
<path d="M38.5231 12.8825C39.6436 11.5162 40.4103 9.65749 40.1975 7.77124C38.5757 7.84124 36.5475 8.86499 35.3795 10.2012C34.3462 11.3787 33.4231 13.3087 33.6616 15.1237C35.4834 15.2562 37.3539 14.2275 38.5231 12.8825Z" fill="white"/>
<path d="M66.8849 12.5114C66.8849 13.9826 66.4323 15.0901 65.5285 15.8339C64.6913 16.5201 63.5015 16.8639 61.9605 16.8639C61.1964 16.8639 60.5426 16.8314 59.9951 16.7664V8.72762C60.7092 8.61512 61.4785 8.55762 62.3092 8.55762C63.7772 8.55762 64.8836 8.86887 65.6297 9.49137C66.4656 10.1951 66.8849 11.2014 66.8849 12.5114ZM65.4682 12.5476C65.4682 11.5939 65.2092 10.8626 64.6913 10.3526C64.1733 9.84387 63.4169 9.58887 62.4208 9.58887C61.9977 9.58887 61.6374 9.61637 61.3387 9.67387V15.7851C61.5041 15.8101 61.8067 15.8214 62.2464 15.8214C63.2746 15.8214 64.0682 15.5426 64.6272 14.9851C65.1861 14.4276 65.4682 13.6151 65.4682 12.5476Z" fill="white"/>
<path d="M74.3963 13.7963C74.3963 14.7026 74.1309 15.4451 73.6001 16.0276C73.0437 16.6263 72.3065 16.9251 71.386 16.9251C70.4988 16.9251 69.7924 16.6388 69.2655 16.0638C68.7399 15.4901 68.4771 14.7663 68.4771 13.8938C68.4771 12.9813 68.7476 12.2326 69.2912 11.6513C69.8347 11.0701 70.5655 10.7788 71.486 10.7788C72.3732 10.7788 73.086 11.0651 73.6258 11.6388C74.1386 12.1963 74.3963 12.9163 74.3963 13.7963ZM73.0027 13.8388C73.0027 13.2951 72.8822 12.8288 72.6424 12.4401C72.3604 11.9701 71.9591 11.7351 71.4373 11.7351C70.8976 11.7351 70.4873 11.9701 70.2053 12.4401C69.9642 12.8288 69.845 13.3026 69.845 13.8626C69.845 14.4063 69.9655 14.8726 70.2053 15.2613C70.4963 15.7313 70.9014 15.9663 71.4245 15.9663C71.9373 15.9663 72.3399 15.7276 72.6296 15.2488C72.8783 14.8526 73.0027 14.3826 73.0027 13.8388Z" fill="white"/>
<path d="M84.4683 10.8989L82.5773 16.7914H81.3465L80.5632 14.2327C80.3645 13.5939 80.2029 12.9589 80.0773 12.3289H80.0529C79.9363 12.9764 79.7747 13.6102 79.567 14.2327L78.735 16.7914H77.4901L75.7119 10.8989H77.0927L77.776 13.7002C77.9414 14.3627 78.0773 14.9939 78.1863 15.5914H78.2106C78.3106 15.0989 78.476 14.4714 78.7093 13.7127L79.567 10.9002H80.6619L81.4837 13.6527C81.6824 14.3239 81.844 14.9702 81.9683 15.5927H82.0055C82.0965 14.9864 82.2337 14.3402 82.4158 13.6527L83.1491 10.9002H84.4683V10.8989Z" fill="white"/>
<path d="M91.4336 16.7914H90.0901V13.4164C90.0901 12.3764 89.6849 11.8564 88.8721 11.8564C88.4734 11.8564 88.1516 11.9989 87.9016 12.2851C87.6542 12.5714 87.5285 12.9089 87.5285 13.2951V16.7901H86.1849V12.5826C86.1849 12.0651 86.1683 11.5039 86.1362 10.8964H87.317L87.3798 11.8176H87.417C87.5734 11.5314 87.8067 11.2951 88.1131 11.1064C88.4772 10.8864 88.8849 10.7751 89.3311 10.7751C89.8952 10.7751 90.3644 10.9526 90.7375 11.3089C91.2016 11.7451 91.4336 12.3964 91.4336 13.2614V16.7914V16.7914Z" fill="white"/>
<path d="M95.1387 16.7913H93.7964V8.19507H95.1387V16.7913Z" fill="white"/>
<path d="M103.049 13.7963C103.049 14.7026 102.784 15.4451 102.253 16.0276C101.697 16.6263 100.958 16.9251 100.039 16.9251C99.1504 16.9251 98.444 16.6388 97.9183 16.0638C97.3927 15.4901 97.1299 14.7663 97.1299 13.8938C97.1299 12.9813 97.4004 12.2326 97.944 11.6513C98.4876 11.0701 99.2183 10.7788 100.138 10.7788C101.026 10.7788 101.738 11.0651 102.279 11.6388C102.791 12.1963 103.049 12.9163 103.049 13.7963ZM101.654 13.8388C101.654 13.2951 101.534 12.8288 101.294 12.4401C101.013 11.9701 100.611 11.7351 100.09 11.7351C99.5491 11.7351 99.1389 11.9701 98.8581 12.4401C98.6171 12.8288 98.4978 13.3026 98.4978 13.8626C98.4978 14.4063 98.6183 14.8726 98.8581 15.2613C99.1491 15.7313 99.5542 15.9663 100.077 15.9663C100.59 15.9663 100.991 15.7276 101.281 15.2488C101.531 14.8526 101.654 14.3826 101.654 13.8388Z" fill="white"/>
<path d="M109.551 16.7913H108.345L108.245 16.1126H108.208C107.795 16.6538 107.207 16.9251 106.442 16.9251C105.872 16.9251 105.41 16.7463 105.063 16.3913C104.748 16.0688 104.59 15.6676 104.59 15.1913C104.59 14.4713 104.898 13.9226 105.517 13.5426C106.135 13.1626 107.004 12.9763 108.123 12.9851V12.8751C108.123 12.0988 107.705 11.7113 106.868 11.7113C106.272 11.7113 105.746 11.8576 105.292 12.1476L105.019 11.2876C105.581 10.9488 106.274 10.7788 107.092 10.7788C108.672 10.7788 109.464 11.5913 109.464 13.2163V15.3863C109.464 15.9751 109.494 16.4438 109.551 16.7913ZM108.157 14.7663V13.8576C106.674 13.8326 105.933 14.2288 105.933 15.0451C105.933 15.3526 106.018 15.5826 106.191 15.7363C106.364 15.8901 106.585 15.9663 106.848 15.9663C107.142 15.9663 107.418 15.8751 107.669 15.6938C107.922 15.5113 108.077 15.2801 108.135 14.9963C108.149 14.9326 108.157 14.8551 108.157 14.7663Z" fill="white"/>
<path d="M117.186 16.7913H115.994L115.931 15.8451H115.894C115.513 16.5651 114.864 16.9251 113.953 16.9251C113.225 16.9251 112.618 16.6463 112.137 16.0888C111.657 15.5313 111.417 14.8076 111.417 13.9188C111.417 12.9651 111.677 12.1926 112.2 11.6026C112.707 11.0526 113.327 10.7776 114.066 10.7776C114.877 10.7776 115.445 11.0438 115.768 11.5776H115.794V8.19507H117.139V15.2038C117.139 15.7776 117.154 16.3063 117.186 16.7913ZM115.794 14.3063V13.3238C115.794 13.1538 115.781 13.0163 115.757 12.9113C115.681 12.5963 115.518 12.3313 115.271 12.1176C115.021 11.9038 114.72 11.7963 114.372 11.7963C113.871 11.7963 113.479 11.9901 113.19 12.3788C112.904 12.7676 112.759 13.2638 112.759 13.8701C112.759 14.4526 112.896 14.9251 113.172 15.2888C113.463 15.6763 113.855 15.8701 114.346 15.8701C114.787 15.8701 115.14 15.7088 115.408 15.3851C115.667 15.0863 115.794 14.7263 115.794 14.3063Z" fill="white"/>
<path d="M128.677 13.7963C128.677 14.7026 128.412 15.4451 127.881 16.0276C127.324 16.6263 126.589 16.9251 125.667 16.9251C124.781 16.9251 124.074 16.6388 123.546 16.0638C123.021 15.4901 122.758 14.7663 122.758 13.8938C122.758 12.9813 123.028 12.2326 123.572 11.6513C124.116 11.0701 124.846 10.7788 125.768 10.7788C126.654 10.7788 127.368 11.0651 127.907 11.6388C128.419 12.1963 128.677 12.9163 128.677 13.7963ZM127.285 13.8388C127.285 13.2951 127.164 12.8288 126.924 12.4401C126.641 11.9701 126.241 11.7351 125.718 11.7351C125.18 11.7351 124.769 11.9701 124.486 12.4401C124.245 12.8288 124.126 13.3026 124.126 13.8626C124.126 14.4063 124.246 14.8726 124.486 15.2613C124.777 15.7313 125.182 15.9663 125.705 15.9663C126.218 15.9663 126.622 15.7276 126.912 15.2488C127.159 14.8526 127.285 14.3826 127.285 13.8388Z" fill="white"/>
<path d="M135.902 16.7914H134.559V13.4164C134.559 12.3764 134.154 11.8564 133.34 11.8564C132.941 11.8564 132.62 11.9989 132.371 12.2851C132.122 12.5714 131.998 12.9089 131.998 13.2951V16.7901H130.653V12.5826C130.653 12.0651 130.638 11.5039 130.605 10.8964H131.785L131.848 11.8176H131.885C132.043 11.5314 132.276 11.2951 132.581 11.1064C132.946 10.8864 133.353 10.7751 133.8 10.7751C134.363 10.7751 134.832 10.9526 135.205 11.3089C135.671 11.7451 135.902 12.3964 135.902 13.2614V16.7914V16.7914Z" fill="white"/>
<path d="M144.944 11.8801H143.464V14.7426C143.464 15.4701 143.727 15.8339 144.248 15.8339C144.489 15.8339 144.689 15.8139 144.847 15.7726L144.881 16.7664C144.616 16.8639 144.267 16.9126 143.838 16.9126C143.307 16.9126 142.894 16.7551 142.595 16.4401C142.295 16.1251 142.147 15.5951 142.147 14.8514V11.8801H141.263V10.8989H142.147V9.8189L143.463 9.4314V10.8976H144.943V11.8801H144.944Z" fill="white"/>
<path d="M152.057 16.7913H150.712V13.4413C150.712 12.3851 150.307 11.8563 149.495 11.8563C148.872 11.8563 148.447 12.1626 148.213 12.7751C148.173 12.9038 148.15 13.0613 148.15 13.2463V16.7901H146.808V8.19507H148.15V11.7463H148.176C148.599 11.1001 149.206 10.7776 149.991 10.7776C150.548 10.7776 151.008 10.9551 151.374 11.3113C151.829 11.7551 152.057 12.4151 152.057 13.2876V16.7913V16.7913Z" fill="white"/>
<path d="M159.394 13.5663C159.394 13.8013 159.376 13.9988 159.344 14.1601H155.314C155.332 14.7426 155.524 15.1863 155.897 15.4938C156.238 15.7688 156.678 15.9063 157.217 15.9063C157.813 15.9063 158.356 15.8138 158.846 15.6276L159.056 16.5376C158.483 16.7801 157.809 16.9013 157.028 16.9013C156.092 16.9013 155.355 16.6326 154.822 16.0951C154.286 15.5576 154.021 14.8363 154.021 13.9313C154.021 13.0426 154.268 12.3026 154.767 11.7126C155.287 11.0826 155.991 10.7676 156.879 10.7676C157.749 10.7676 158.409 11.0826 158.855 11.7126C159.215 12.2126 159.394 12.8313 159.394 13.5663ZM158.112 13.2276C158.122 12.8388 158.033 12.5038 157.851 12.2213C157.618 11.8576 157.263 11.6751 156.782 11.6751C156.344 11.6751 155.986 11.8526 155.713 12.2088C155.49 12.4926 155.358 12.8313 155.314 13.2276H158.112Z" fill="white"/>
<path d="M72.7754 39.3799H69.8639L68.269 34.4936H62.7254L61.2062 39.3799H58.3716L63.8639 22.7449H67.2562L72.7754 39.3799ZM67.7882 32.4436L66.3459 28.0999C66.1934 27.6561 65.9075 26.6111 65.4857 24.9661H65.4344C65.2664 25.6736 64.9959 26.7186 64.6241 28.0999L63.2075 32.4436H67.7882V32.4436Z" fill="white"/>
<path d="M86.8997 33.2349C86.8997 35.2749 86.3343 36.8874 85.2035 38.0712C84.1907 39.1249 82.933 39.6512 81.4317 39.6512C79.8112 39.6512 78.6471 39.0837 77.9381 37.9487H77.8869V44.2674H75.1535V31.3337C75.1535 30.0512 75.1189 28.7349 75.0522 27.3849H77.4561L77.6087 29.2862H77.6599C78.5715 27.8537 79.9548 27.1387 81.8112 27.1387C83.2625 27.1387 84.474 27.6974 85.4433 28.8162C86.4151 29.9362 86.8997 31.4087 86.8997 33.2349ZM84.1151 33.3324C84.1151 32.1649 83.8458 31.2024 83.3048 30.4449C82.7138 29.6549 81.9202 29.2599 80.9253 29.2599C80.251 29.2599 79.6381 29.4799 79.0907 29.9137C78.542 30.3512 78.183 30.9224 78.0151 31.6299C77.9304 31.9599 77.8881 32.2299 77.8881 32.4424V34.4424C77.8881 35.3149 78.1625 36.0512 78.7112 36.6524C79.2599 37.2537 79.9728 37.5537 80.8497 37.5537C81.8792 37.5537 82.6804 37.1662 83.2535 36.3937C83.8279 35.6199 84.1151 34.5999 84.1151 33.3324Z" fill="white"/>
<path d="M101.05 33.2349C101.05 35.2749 100.484 36.8874 99.3523 38.0712C98.3408 39.1249 97.0831 39.6512 95.5818 39.6512C93.9613 39.6512 92.7972 39.0837 92.0895 37.9487H92.0382V44.2674H89.3049V31.3337C89.3049 30.0512 89.2703 28.7349 89.2036 27.3849H91.6075L91.76 29.2862H91.8113C92.7216 27.8537 94.1049 27.1387 95.9626 27.1387C97.4126 27.1387 98.6241 27.6974 99.5959 28.8162C100.564 29.9362 101.05 31.4087 101.05 33.2349ZM98.2652 33.3324C98.2652 32.1649 97.9946 31.2024 97.4536 30.4449C96.8626 29.6549 96.0716 29.2599 95.0754 29.2599C94.3998 29.2599 93.7882 29.4799 93.2395 29.9137C92.6908 30.3512 92.3331 30.9224 92.1651 31.6299C92.0818 31.9599 92.0382 32.2299 92.0382 32.4424V34.4424C92.0382 35.3149 92.3126 36.0512 92.8587 36.6524C93.4075 37.2524 94.1203 37.5537 94.9998 37.5537C96.0293 37.5537 96.8305 37.1662 97.4036 36.3937C97.978 35.6199 98.2652 34.5999 98.2652 33.3324Z" fill="white"/>
<path d="M116.87 34.715C116.87 36.13 116.366 37.2812 115.355 38.17C114.243 39.1412 112.696 39.6262 110.707 39.6262C108.872 39.6262 107.4 39.2812 106.286 38.59L106.919 36.3687C108.119 37.0762 109.436 37.4312 110.87 37.4312C111.9 37.4312 112.701 37.2037 113.277 36.7512C113.85 36.2987 114.136 35.6912 114.136 34.9337C114.136 34.2587 113.9 33.69 113.427 33.2287C112.956 32.7675 112.17 32.3387 111.073 31.9425C108.086 30.8562 106.593 29.265 106.593 27.1725C106.593 25.805 107.116 24.6837 108.164 23.8112C109.207 22.9375 110.6 22.5012 112.341 22.5012C113.893 22.5012 115.183 22.765 116.213 23.2912L115.529 25.4637C114.568 24.9537 113.481 24.6987 112.264 24.6987C111.302 24.6987 110.551 24.93 110.013 25.39C109.557 25.8012 109.329 26.3025 109.329 26.8962C109.329 27.5537 109.589 28.0975 110.113 28.525C110.568 28.92 111.395 29.3475 112.595 29.8087C114.063 30.385 115.141 31.0587 115.834 31.8312C116.525 32.6012 116.87 33.565 116.87 34.715Z" fill="white"/>
<path d="M125.907 29.385H122.895V35.2087C122.895 36.69 123.425 37.43 124.489 37.43C124.978 37.43 125.383 37.3887 125.703 37.3062L125.779 39.33C125.241 39.5262 124.532 39.625 123.653 39.625C122.574 39.625 121.73 39.3037 121.121 38.6625C120.515 38.02 120.21 36.9425 120.21 35.4287V29.3825H118.415V27.3825H120.21V25.1862L122.895 24.3962V27.3825H125.907V29.385Z" fill="white"/>
<path d="M139.501 33.2836C139.501 35.1274 138.96 36.6411 137.881 37.8249C136.749 39.0436 135.246 39.6511 133.373 39.6511C131.568 39.6511 130.131 39.0674 129.059 37.8999C127.987 36.7324 127.451 35.2586 127.451 33.4824C127.451 31.6236 128.002 30.1011 129.109 28.9174C130.213 27.7324 131.702 27.1399 133.576 27.1399C135.381 27.1399 136.833 27.7236 137.929 28.8924C138.978 30.0261 139.501 31.4899 139.501 33.2836ZM136.665 33.3699C136.665 32.2636 136.423 31.3149 135.932 30.5236C135.359 29.5661 134.54 29.0886 133.478 29.0886C132.379 29.0886 131.545 29.5674 130.972 30.5236C130.481 31.3161 130.238 32.2799 130.238 33.4199C130.238 34.5261 130.481 35.4749 130.972 36.2649C131.563 37.2224 132.388 37.6999 133.454 37.6999C134.497 37.6999 135.317 37.2124 135.908 36.2399C136.411 35.4336 136.665 34.4749 136.665 33.3699Z" fill="white"/>
<path d="M148.386 29.7287C148.115 29.6799 147.827 29.6549 147.524 29.6549C146.563 29.6549 145.819 30.0087 145.296 30.7174C144.841 31.3424 144.613 32.1324 144.613 33.0862V39.3799H141.881L141.906 31.1624C141.906 29.7799 141.872 28.5212 141.804 27.3862H144.184L144.284 29.6812H144.36C144.649 28.8924 145.104 28.2574 145.727 27.7812C146.336 27.3524 146.993 27.1387 147.702 27.1387C147.955 27.1387 148.183 27.1562 148.386 27.1874V29.7287Z" fill="white"/>
<path d="M160.61 32.815C160.61 33.2925 160.578 33.695 160.51 34.0237H152.31C152.342 35.2087 152.738 36.115 153.5 36.74C154.191 37.2987 155.084 37.5787 156.182 37.5787C157.396 37.5787 158.504 37.39 159.5 37.0112L159.928 38.8612C158.764 39.3562 157.39 39.6025 155.804 39.6025C153.896 39.6025 152.399 39.055 151.309 37.9612C150.222 36.8675 149.677 35.3987 149.677 33.5562C149.677 31.7475 150.183 30.2412 151.197 29.04C152.259 27.7575 153.693 27.1162 155.499 27.1162C157.272 27.1162 158.614 27.7575 159.525 29.04C160.247 30.0587 160.61 31.3187 160.61 32.815ZM158.004 32.1237C158.022 31.3337 157.843 30.6512 157.473 30.075C157 29.3337 156.273 28.9637 155.295 28.9637C154.401 28.9637 153.674 29.325 153.119 30.05C152.664 30.6262 152.393 31.3175 152.31 32.1225H158.004V32.1237Z" fill="white"/>
</g>
<defs>
<filter id="filter0_d_203_2409" x="0" y="0" width="181.077" height="58" filterUnits="userSpaceOnUse" color-interpolation-filters="sRGB">
<feFlood flood-opacity="0" result="BackgroundImageFix"/>
<feColorMatrix in="SourceAlpha" type="matrix" values="0 0 0 0 0 0 0 0 0 0 0 0 0 0 0 0 0 0 127 0" result="hardAlpha"/>
<feOffset dy="4"/>
<feGaussianBlur stdDeviation="2"/>
<feComposite in2="hardAlpha" operator="out"/>
<feColorMatrix type="matrix" values="0 0 0 0 0 0 0 0 0 0 0 0 0 0 0 0 0 0 0.25 0"/>
<feBlend mode="normal" in2="BackgroundImageFix" result="effect1_dropShadow_203_2409"/>
<feBlend mode="normal" in="SourceGraphic" in2="effect1_dropShadow_203_2409" result="shape"/>
</filter>
</defs>
</svg>
