<svg width="79" height="103" viewBox="0 0 79 103" fill="none" xmlns="http://www.w3.org/2000/svg">
<rect x="36.7617" y="54.2922" width="4.61793" height="16.2843" fill="url(#paint0_linear_1169_6127)"/>
<path d="M19.2424 19.916H5C5 30.9606 5.847 37.3137 21.5831 37.3137" stroke="#FFDD66" stroke-width="9"/>
<path d="M59.8971 34.3815C59.8971 45.9333 50.5326 55.2978 38.9808 55.2978C27.429 55.2978 18.0645 45.9333 18.0645 34.3815C18.0645 22.8297 27.429 13.4652 38.9808 13.4652C50.5326 13.4652 59.8971 22.8297 59.8971 34.3815Z" fill="#FFDD66"/>
<path d="M38.9808 69.7633C30.4519 69.7633 23.5379 72.2576 23.5379 75.3345H54.4237C54.4237 72.2576 47.5097 69.7633 38.9808 69.7633Z" fill="#FFDD66"/>
<path d="M18.0645 9.44531H59.8971V33.4041H18.0645V9.44531Z" fill="#FFDD66"/>
<path d="M54.4237 76.4096H23.5379V75.2368H54.4237V76.4096Z" fill="#FFDD66"/>
<path d="M59.3045 19.916H73.5469C73.5469 30.9606 72.6999 37.3137 56.9638 37.3137" stroke="#DE9300" stroke-width="9"/>
<path d="M59.8966 34.3815C59.8966 45.9333 50.532 55.2979 38.9803 55.2979C38.9803 55.2979 38.9803 45.9333 38.9803 34.3815C38.9803 22.8298 38.9803 13.4652 38.9803 13.4652C50.532 13.4652 59.8966 22.8298 59.8966 34.3815Z" fill="url(#paint1_linear_1169_6127)"/>
<path d="M38.9803 69.7633C38.9803 69.7633 38.9803 72.2576 38.9803 75.3345H54.4231C54.4231 72.2576 47.5091 69.7633 38.9803 69.7633Z" fill="url(#paint2_linear_1169_6127)"/>
<path d="M38.9803 9.4469H59.8966V33.4041H38.9803V9.4469Z" fill="url(#paint3_linear_1169_6127)"/>
<path d="M54.4231 76.4097H38.9803C38.9803 76.4097 38.9456 75.6935 38.9803 75.2368C39.437 69.2233 54.4231 75.2368 54.4231 75.2368V76.4097Z" fill="url(#paint4_linear_1169_6127)"/>
<circle cx="39.392" cy="32.0533" r="12.517" fill="#DCAE0C"/>
<circle cx="39.3656" cy="31.899" r="13.4498" fill="#DE9300" stroke="#FFE176" stroke-width="4.55437"/>
<path d="M39.3654 21.6085L42.5367 27.9511L48.8793 28.7439L44.524 33.6277L45.708 40.6362L39.3654 37.4649L33.0228 40.6362L34.2174 33.6277L29.8516 28.7439L36.1941 27.9511L39.3654 21.6085Z" fill="#FFF4BC"/>
<path d="M40.2598 21.1613L39.3654 19.3725L38.471 21.1613L35.539 27.0252L29.7275 27.7516L27.8347 27.9882L29.106 29.4104L33.1506 33.9348L32.0371 40.4682L31.7056 42.4129L33.4701 41.5306L39.3654 38.583L45.2608 41.5306L47.022 42.4113L46.694 40.4697L45.5901 33.9347L49.6256 29.4095L50.8933 27.9879L49.0033 27.7516L43.1918 27.0252L40.2598 21.1613Z" stroke="#C98500" stroke-opacity="0.7" stroke-width="2"/>
<path d="M13.4858 14.562L15.6914 9.70801L13.4858 4.85401L18.3398 7.05954L23.1938 4.85401L20.9883 9.70801L23.1938 14.562L18.3398 12.3565L13.4858 14.562Z" fill="white"/>
<path d="M17.209 90.6516C17.209 82.2672 24.0059 75.4703 32.3902 75.4703H45.8395C54.2239 75.4703 61.0207 82.2672 61.0207 90.6516V97.9127H17.209V90.6516Z" fill="#10B981"/>
<rect x="25.2087" y="82.9802" width="28.7014" height="8.12044" fill="#F9B50E" stroke="#FFEC86" stroke-width="3.91749"/>
<path d="M25.582 81.0215H40.3382L51.9878 93.0594H37.2316L25.582 81.0215Z" fill="#FFEC86"/>
<rect x="14.7734" y="97.9127" width="48.6797" height="4.65984" fill="#DE9300"/>
<defs>
<linearGradient id="paint0_linear_1169_6127" x1="39.0707" y1="54.2922" x2="39.0707" y2="70.5765" gradientUnits="userSpaceOnUse">
<stop stop-color="#C07F00"/>
<stop offset="1" stop-color="#DE9300"/>
</linearGradient>
<linearGradient id="paint1_linear_1169_6127" x1="59.7526" y1="30.5398" x2="38.7833" y2="30.5398" gradientUnits="userSpaceOnUse">
<stop stop-color="#DE9300"/>
<stop offset="1" stop-color="#FFBC11"/>
</linearGradient>
<linearGradient id="paint2_linear_1169_6127" x1="59.7526" y1="30.5398" x2="38.7833" y2="30.5398" gradientUnits="userSpaceOnUse">
<stop stop-color="#DE9300"/>
<stop offset="1" stop-color="#FFBC11"/>
</linearGradient>
<linearGradient id="paint3_linear_1169_6127" x1="59.7526" y1="30.5398" x2="38.7833" y2="30.5398" gradientUnits="userSpaceOnUse">
<stop stop-color="#DE9300"/>
<stop offset="1" stop-color="#FFBC11"/>
</linearGradient>
<linearGradient id="paint4_linear_1169_6127" x1="59.7526" y1="30.5398" x2="38.7833" y2="30.5398" gradientUnits="userSpaceOnUse">
<stop stop-color="#DE9300"/>
<stop offset="1" stop-color="#FFBC11"/>
</linearGradient>
</defs>
</svg>
