<svg width="84" height="32" viewBox="0 0 84 32" fill="none" xmlns="http://www.w3.org/2000/svg">
<ellipse cx="17.284" cy="15.582" rx="15.7928" ry="15.582" fill="#A7F3D0"/>
<path d="M3.84006 12.3403C4.3217 11.6848 4.97774 11.1522 5.80816 10.7425C6.6552 10.3165 7.59358 10.1035 8.62331 10.1035C9.83573 10.1035 10.9319 10.3902 11.9118 10.9638C12.8917 11.5373 13.664 12.3567 14.2287 13.4218C14.7934 14.4706 15.0757 15.675 15.0757 17.0351C15.0757 18.3952 14.7934 19.616 14.2287 20.6976C13.664 21.7627 12.8834 22.5984 11.8869 23.2048C10.907 23.7947 9.81912 24.0897 8.62331 24.0897C7.56036 24.0897 6.61368 23.8848 5.78325 23.4751C4.96943 23.0655 4.3217 22.5411 3.84006 21.902V23.8684H1V6.02055L3.84006 4.40411V12.3403ZM12.1858 17.0351C12.1858 16.1011 11.9865 15.2981 11.5879 14.6262C11.2059 13.938 10.6911 13.4218 10.0433 13.0777C9.41221 12.7172 8.73126 12.5369 8.00049 12.5369C7.28632 12.5369 6.60537 12.7172 5.95764 13.0777C5.32652 13.4382 4.81165 13.9626 4.41305 14.6508C4.03105 15.3391 3.84006 16.1502 3.84006 17.0843C3.84006 18.0183 4.03105 18.8377 4.41305 19.5423C4.81165 20.2305 5.32652 20.7549 5.95764 21.1154C6.60537 21.476 7.28632 21.6562 8.00049 21.6562C8.73126 21.6562 9.41221 21.476 10.0433 21.1154C10.6911 20.7385 11.2059 20.1978 11.5879 19.4931C11.9865 18.7885 12.1858 17.9692 12.1858 17.0351Z" fill="#047857" stroke="#047857" stroke-width="2"/>
<path d="M13.4831 15.4341C13.424 13.7636 13.761 12.2517 14.4942 10.8983C15.244 9.54431 16.2781 8.47568 17.5965 7.69239C18.9309 6.89216 20.4031 6.46431 22.0131 6.40884C23.8556 6.34536 25.5064 6.73939 26.9658 7.59093C28.4411 8.42553 29.5315 9.65052 30.2368 11.2659L26.8258 11.3834C26.3458 10.4981 25.6996 9.84814 24.8872 9.43341C24.0748 9.01869 23.1458 8.82934 22.1001 8.86537C20.9548 8.90483 19.943 9.19384 19.0646 9.73241C18.1863 10.271 17.5066 11.0241 17.0257 11.9916C16.5614 12.9587 16.3515 14.0727 16.3962 15.3337C16.4408 16.5947 16.7289 17.6916 17.2605 18.6243C17.8086 19.5564 18.5401 20.2691 19.455 20.7622C20.3693 21.239 21.3991 21.4577 22.5444 21.4183C23.5901 21.3822 24.5034 21.1294 25.2845 20.6598C26.0656 20.1901 26.6643 19.4972 27.0805 18.5811L30.4915 18.4636C29.9021 20.1235 28.9011 21.4206 27.4883 22.3547C26.0921 23.2882 24.4729 23.7867 22.6304 23.8502C21.0038 23.9063 19.5052 23.589 18.1346 22.8983C16.7635 22.1913 15.6561 21.1883 14.8124 19.8892C13.9854 18.5896 13.5423 17.1045 13.4831 15.4341Z" fill="#10B981" stroke="#10B981"/>
<path d="M38.2869 10.8478C39.4913 10.8478 40.4573 11.2356 41.185 12.011C41.9126 12.7743 42.2765 13.8284 42.2765 15.1733V21.0981H39.0773V15.5913C39.0773 14.9128 38.8953 14.3858 38.5315 14.0102C38.1677 13.6346 37.6784 13.4468 37.0637 13.4468C36.4489 13.4468 35.9596 13.6346 35.5958 14.0102C35.232 14.3858 35.05 14.9128 35.05 15.5913V21.0981H31.832V8.69714L35.05 7.64917V12.32C35.3762 11.8717 35.8216 11.5142 36.3862 11.2477C36.9507 10.9811 37.5843 10.8478 38.2869 10.8478Z" fill="#10B981"/>
<path fill-rule="evenodd" clip-rule="evenodd" d="M43.2219 13.5253C42.8308 14.2901 42.6353 15.1784 42.6353 16.1902C42.6353 17.2021 42.8308 18.0963 43.2219 18.8729C43.6253 19.6376 44.1692 20.2318 44.8536 20.6554C45.5381 21.0672 46.2959 21.2731 47.127 21.2731C47.8481 21.2731 48.4776 21.1319 49.0153 20.8495C49.5653 20.5671 49.9931 20.1965 50.2987 19.7376V21.1319H53.2567L53.3452 21.0111L53.4337 20.8974V12.1907L50.2987 11.2839V12.6781C50.0053 12.2193 49.5837 11.8487 49.0337 11.5663C48.4959 11.2839 47.8664 11.1427 47.1453 11.1427C46.302 11.1427 45.5381 11.3486 44.8536 11.7604C44.1692 12.1722 43.6253 12.7605 43.2219 13.5253ZM49.6387 14.4254C50.0787 14.8607 50.2987 15.4549 50.2987 16.2079C50.2987 16.9609 50.0787 17.5551 49.6387 17.9904C49.2109 18.4258 48.6853 18.6434 48.062 18.6434C47.4386 18.6434 46.907 18.4258 46.467 17.9904C46.0392 17.5433 45.8253 16.9433 45.8253 16.1902C45.8253 15.4372 46.0392 14.8489 46.467 14.4254C46.907 13.99 47.4386 13.7724 48.062 13.7724C48.6853 13.7724 49.2109 13.99 49.6387 14.4254Z" fill="#10B981"/>
<path fill-rule="evenodd" clip-rule="evenodd" d="M70.2017 12.0995C69.4427 11.3451 68.4162 10.9679 67.1222 10.9679C66.3881 10.9679 65.7099 11.1415 65.0878 11.4888C64.4657 11.836 63.9742 12.2851 63.6134 12.8359C63.265 12.2372 62.7797 11.7762 62.1576 11.4529C61.5479 11.1296 60.8511 10.9679 60.0672 10.9679C59.4078 10.9679 58.8168 11.0936 58.2942 11.3451C57.7716 11.5846 57.3485 11.9139 57.025 12.333V11.0757L53.8335 12.0995V20.9236L53.922 21.0109L54.0105 21.0983H54.6314H55.4293H57.025V15.6559C57.025 15.0093 57.1992 14.5123 57.5476 14.1651C57.9084 13.8058 58.3999 13.6262 59.0221 13.6262C59.6442 13.6262 60.1294 13.8058 60.4778 14.1651C60.8387 14.5123 61.0191 15.0093 61.0191 15.6559V21.0983H64.192V15.6559C64.192 15.0093 64.3661 14.5123 64.7145 14.1651C65.0754 13.8058 65.5669 13.6262 66.189 13.6262C66.8111 13.6262 67.2964 13.8058 67.6448 14.1651C68.0056 14.5123 68.186 15.0093 68.186 15.6559V21.0983H71.3589V15.2428C71.3589 13.9016 70.9732 12.8539 70.2017 12.0995Z" fill="#10B981"/>
<path d="M75.1728 12.5021C75.5034 12.0436 75.9596 11.6733 76.5415 11.3911C77.1233 11.109 77.8044 10.9679 78.5846 10.9679C79.4971 10.9679 80.3236 11.1736 81.0642 11.5851C81.8047 11.9966 82.3866 12.5844 82.8098 13.3485C83.2462 14.1126 83.4644 15.0002 83.4644 16.0113C83.4644 17.0223 83.2462 17.9157 82.8098 18.6916C82.3866 19.4558 81.8047 20.0495 81.0642 20.4727C80.3236 20.8841 79.4971 21.0899 78.5846 21.0899C77.8176 21.0899 77.1366 20.9488 76.5415 20.6667C75.9596 20.3845 75.5034 20.0201 75.1728 19.5733V25.6395H71.7808V12.0159L75.1728 11.109V12.5021ZM80.0128 16.0113C80.0128 15.2589 79.7748 14.6711 79.2987 14.2478C78.8359 13.8129 78.2606 13.5954 77.573 13.5954C76.8985 13.5954 76.3233 13.8129 75.8472 14.2478C75.3844 14.6828 75.1529 15.2765 75.1529 16.0289C75.1529 16.7813 75.3844 17.375 75.8472 17.8099C76.3233 18.2449 76.8985 18.4624 77.573 18.4624C78.2474 18.4624 78.8227 18.2449 79.2987 17.8099C79.7748 17.3632 80.0128 16.7636 80.0128 16.0113Z" fill="#10B981"/>
</svg>
