<svg width="182" height="58" viewBox="0 0 182 58" fill="none" xmlns="http://www.w3.org/2000/svg">
<g filter="url(#filter0_d_203_2408)">
<path d="M170.667 50H10.4103C6.88622 50 4 47.1859 4 43.75V6.25C4 2.81406 6.88622 0 10.4103 0H170.667C174.191 0 177.077 2.81406 177.077 6.25V43.75C177.077 47.1859 174.191 50 170.667 50Z" fill="black"/>
<path d="M170.667 1.00156C173.635 1.00156 176.05 3.35625 176.05 6.25V43.75C176.05 46.6438 173.635 48.9984 170.667 48.9984H10.4103C7.44231 48.9984 5.02724 46.6438 5.02724 43.75V6.25C5.02724 3.35625 7.44231 1.00156 10.4103 1.00156H170.667ZM170.667 0H10.4103C6.88622 0 4 2.81406 4 6.25V43.75C4 47.1859 6.88622 50 10.4103 50H170.667C174.191 50 177.077 47.1859 177.077 43.75V6.25C177.077 2.81406 174.191 0 170.667 0Z" fill="#A6A6A6"/>
<path d="M17.3782 9.42324C17.0016 9.80761 16.7837 10.4061 16.7837 11.1811V38.8248C16.7837 39.5998 17.0016 40.1982 17.3782 40.5826L17.4712 40.667L33.359 25.1826V24.817L17.4712 9.33262L17.3782 9.42324Z" fill="url(#paint0_linear_203_2408)"/>
<path d="M38.649 30.3467L33.3589 25.1826V24.817L38.6554 19.6529L38.774 19.7201L45.0464 23.1998C46.8364 24.1873 46.8364 25.8123 45.0464 26.8061L38.774 30.2795L38.649 30.3467Z" fill="url(#paint1_linear_203_2408)"/>
<path d="M38.7742 30.2796L33.3592 24.9999L17.3784 40.5827C17.973 41.1921 18.9425 41.2655 20.0451 40.6562L38.7742 30.2796Z" fill="url(#paint2_linear_203_2408)"/>
<path d="M38.7742 19.7203L20.0451 9.34376C18.9425 8.74063 17.973 8.81407 17.3784 9.42344L33.3592 25L38.7742 19.7203Z" fill="url(#paint3_linear_203_2408)"/>
<path d="M64.7918 12.8047C64.7918 13.8485 64.4712 14.6844 63.8398 15.3079C63.1139 16.0469 62.1684 16.4188 61.0097 16.4188C59.9023 16.4188 58.9568 16.0407 58.1812 15.2954C57.4039 14.5391 57.0161 13.611 57.0161 12.5C57.0161 11.3891 57.4039 10.461 58.1812 9.71099C58.9568 8.95942 59.9023 8.5813 61.0097 8.5813C61.561 8.5813 62.0866 8.69224 62.5882 8.89849C63.0882 9.1063 63.4953 9.38755 63.7902 9.73442L63.1203 10.3938C62.6059 9.80161 61.9055 9.50942 61.0097 9.50942C60.202 9.50942 59.5017 9.78442 58.9071 10.3391C58.319 10.8954 58.0241 11.6157 58.0241 12.5C58.0241 13.3844 58.319 14.111 58.9071 14.6672C59.5017 15.2157 60.202 15.4969 61.0097 15.4969C61.8671 15.4969 62.5882 15.2157 63.1571 14.661C63.5321 14.2938 63.7453 13.7875 63.8014 13.1407H61.0097V12.2375H64.7341C64.7789 12.4329 64.7918 12.6219 64.7918 12.8047Z" fill="white" stroke="white" stroke-width="0.16" stroke-miterlimit="10"/>
<path d="M70.7002 9.67349H67.2018V12.0485H70.3557V12.9516H67.2018V15.3266H70.7002V16.2469H66.2114V8.75317H70.7002V9.67349Z" fill="white" stroke="white" stroke-width="0.16" stroke-miterlimit="10"/>
<path d="M74.8701 16.2469H73.8797V9.67349H71.7339V8.75317H77.0175V9.67349H74.8701V16.2469Z" fill="white" stroke="white" stroke-width="0.16" stroke-miterlimit="10"/>
<path d="M80.8413 16.2469V8.75317H81.8301V16.2469H80.8413Z" fill="white" stroke="white" stroke-width="0.16" stroke-miterlimit="10"/>
<path d="M86.2134 16.2469H85.231V9.67349H83.0771V8.75317H88.3672V9.67349H86.2134V16.2469Z" fill="white" stroke="white" stroke-width="0.16" stroke-miterlimit="10"/>
<path d="M98.3702 15.2829C97.6122 16.0407 96.6731 16.4188 95.5529 16.4188C94.4263 16.4188 93.4872 16.0407 92.7292 15.2829C91.9728 14.5266 91.5962 13.5985 91.5962 12.5C91.5962 11.4016 91.9728 10.4735 92.7292 9.71724C93.4872 8.95942 94.4263 8.5813 95.5529 8.5813C96.6667 8.5813 97.6058 8.95942 98.3638 9.72349C99.1266 10.486 99.5032 11.4079 99.5032 12.5C99.5032 13.5985 99.1266 14.5266 98.3702 15.2829ZM93.4616 14.6547C94.0321 15.2157 94.726 15.4969 95.5529 15.4969C96.3734 15.4969 97.0738 15.2157 97.6379 14.6547C98.2068 14.0938 98.4952 13.3735 98.4952 12.5C98.4952 11.6266 98.2068 10.9063 97.6379 10.3454C97.0738 9.78442 96.3734 9.50317 95.5529 9.50317C94.726 9.50317 94.0321 9.78442 93.4616 10.3454C92.8927 10.9063 92.6042 11.6266 92.6042 12.5C92.6042 13.3735 92.8927 14.0938 93.4616 14.6547Z" fill="white" stroke="white" stroke-width="0.16" stroke-miterlimit="10"/>
<path d="M100.893 16.2469V8.75317H102.094L105.832 14.5813H105.875L105.832 13.1407V8.75317H106.82V16.2469H105.788L101.875 10.1313H101.832L101.875 11.5782V16.2469H100.893Z" fill="white" stroke="white" stroke-width="0.16" stroke-miterlimit="10"/>
<path d="M91.3524 27.1907C88.3412 27.1907 85.8813 29.4251 85.8813 32.5079C85.8813 35.5657 88.3412 37.8235 91.3524 37.8235C94.37 37.8235 96.83 35.5657 96.83 32.5079C96.83 29.4251 94.37 27.1907 91.3524 27.1907ZM91.3524 35.7297C89.7002 35.7297 88.2787 34.4001 88.2787 32.5079C88.2787 30.5907 89.7002 29.2844 91.3524 29.2844C93.0046 29.2844 94.4325 30.5907 94.4325 32.5079C94.4325 34.4001 93.0046 35.7297 91.3524 35.7297ZM79.4149 27.1907C76.3973 27.1907 73.9438 29.4251 73.9438 32.5079C73.9438 35.5657 76.3973 37.8235 79.4149 37.8235C82.4309 37.8235 84.8861 35.5657 84.8861 32.5079C84.8861 29.4251 82.4309 27.1907 79.4149 27.1907ZM79.4149 35.7297C77.7611 35.7297 76.3348 34.4001 76.3348 32.5079C76.3348 30.5907 77.7611 29.2844 79.4149 29.2844C81.0671 29.2844 82.4886 30.5907 82.4886 32.5079C82.4886 34.4001 81.0671 35.7297 79.4149 35.7297ZM65.2098 28.8204V31.0797H70.7434C70.5816 32.3422 70.1489 33.2704 69.4854 33.9172C68.6777 34.6985 67.4197 35.5657 65.2098 35.5657C61.8043 35.5657 59.1377 32.886 59.1377 29.5657C59.1377 26.2454 61.8043 23.5657 65.2098 23.5657C67.0511 23.5657 68.3909 24.2672 69.3797 25.1766L71.0127 23.5844C69.6297 22.2969 67.7899 21.3079 65.2098 21.3079C60.5399 21.3079 56.6152 25.0126 56.6152 29.5657C56.6152 34.1188 60.5399 37.8235 65.2098 37.8235C67.7338 37.8235 69.6297 37.0172 71.12 35.5047C72.6473 34.0157 73.1232 31.9219 73.1232 30.2313C73.1232 29.7063 73.0784 29.2235 72.9982 28.8204H65.2098ZM123.296 30.5719C122.846 29.3829 121.457 27.1907 118.626 27.1907C115.822 27.1907 113.487 29.3454 113.487 32.5079C113.487 35.486 115.798 37.8235 118.896 37.8235C121.4 37.8235 122.846 36.3344 123.441 35.4672L121.582 34.2594C120.961 35.1438 120.117 35.7297 118.896 35.7297C117.683 35.7297 116.812 35.1876 116.255 34.1188L123.548 31.1766L123.296 30.5719ZM115.86 32.3422C115.798 30.2922 117.493 29.2422 118.708 29.2422C119.66 29.2422 120.468 29.7063 120.737 30.3704L115.86 32.3422ZM109.933 37.5H112.33V21.8751H109.933V37.5ZM106.006 28.3751H105.926C105.388 27.7532 104.36 27.1907 103.059 27.1907C100.328 27.1907 97.8316 29.5282 97.8316 32.5251C97.8316 35.5047 100.328 37.8235 103.059 37.8235C104.36 37.8235 105.388 37.2563 105.926 36.6157H106.006V37.3782C106.006 39.411 104.892 40.5032 103.096 40.5032C101.631 40.5032 100.723 39.4719 100.348 38.6047L98.2627 39.4532C98.8636 40.8625 100.455 42.5969 103.096 42.5969C105.907 42.5969 108.279 40.9844 108.279 37.061V27.5141H106.006V28.3751ZM103.264 35.7297C101.612 35.7297 100.229 34.3813 100.229 32.5251C100.229 30.6516 101.612 29.2844 103.264 29.2844C104.892 29.2844 106.176 30.6516 106.176 32.5251C106.176 34.3813 104.892 35.7297 103.264 35.7297ZM134.521 21.8751H128.787V37.5H131.178V31.5797H134.521C137.176 31.5797 139.78 29.7063 139.78 26.7266C139.78 23.7485 137.17 21.8751 134.521 21.8751ZM134.583 29.4063H131.178V24.0485H134.583C136.368 24.0485 137.388 25.4938 137.388 26.7266C137.388 27.936 136.368 29.4063 134.583 29.4063ZM149.364 27.161C147.636 27.161 145.84 27.9047 145.101 29.5532L147.223 30.4204C147.679 29.5532 148.519 29.2719 149.407 29.2719C150.647 29.2719 151.905 29.9985 151.924 31.2813V31.4454C151.492 31.2016 150.566 30.8407 149.426 30.8407C147.141 30.8407 144.812 32.0672 144.812 34.3563C144.812 36.4501 146.684 37.7985 148.788 37.7985C150.397 37.7985 151.285 37.0907 151.843 36.2672H151.924V37.475H154.234V31.4813C154.234 28.711 152.112 27.161 149.364 27.161ZM149.075 35.7235C148.293 35.7235 147.203 35.3454 147.203 34.4001C147.203 33.1907 148.562 32.7266 149.739 32.7266C150.791 32.7266 151.285 32.9532 151.924 33.2516C151.737 34.6985 150.46 35.7235 149.075 35.7235ZM162.647 27.5032L159.899 34.2766H159.817L156.976 27.5032H154.397L158.666 36.9688L156.231 42.236H158.729L165.307 27.5032H162.647ZM141.094 37.5H143.492V21.8751H141.094V37.5Z" fill="white"/>
</g>
<defs>
<filter id="filter0_d_203_2408" x="0" y="0" width="181.077" height="58" filterUnits="userSpaceOnUse" color-interpolation-filters="sRGB">
<feFlood flood-opacity="0" result="BackgroundImageFix"/>
<feColorMatrix in="SourceAlpha" type="matrix" values="0 0 0 0 0 0 0 0 0 0 0 0 0 0 0 0 0 0 127 0" result="hardAlpha"/>
<feOffset dy="4"/>
<feGaussianBlur stdDeviation="2"/>
<feComposite in2="hardAlpha" operator="out"/>
<feColorMatrix type="matrix" values="0 0 0 0 0 0 0 0 0 0 0 0 0 0 0 0 0 0 0.25 0"/>
<feBlend mode="normal" in2="BackgroundImageFix" result="effect1_dropShadow_203_2408"/>
<feBlend mode="normal" in="SourceGraphic" in2="effect1_dropShadow_203_2408" result="shape"/>
</filter>
<linearGradient id="paint0_linear_203_2408" x1="31.9484" y1="39.1127" x2="10.9771" y2="17.6037" gradientUnits="userSpaceOnUse">
<stop stop-color="#00A0FF"/>
<stop offset="0.0066" stop-color="#00A1FF"/>
<stop offset="0.2601" stop-color="#00BEFF"/>
<stop offset="0.5122" stop-color="#00D2FF"/>
<stop offset="0.7604" stop-color="#00DFFF"/>
<stop offset="1" stop-color="#00E3FF"/>
</linearGradient>
<linearGradient id="paint1_linear_203_2408" x1="47.3773" y1="24.9981" x2="16.3557" y2="24.9981" gradientUnits="userSpaceOnUse">
<stop stop-color="#FFE000"/>
<stop offset="0.4087" stop-color="#FFBD00"/>
<stop offset="0.7754" stop-color="#FFA500"/>
<stop offset="1" stop-color="#FF9C00"/>
</linearGradient>
<linearGradient id="paint2_linear_203_2408" x1="35.8297" y1="22.1298" x2="7.39094" y2="-7.03817" gradientUnits="userSpaceOnUse">
<stop stop-color="#FF3A44"/>
<stop offset="1" stop-color="#C31162"/>
</linearGradient>
<linearGradient id="paint3_linear_203_2408" x1="13.3557" y1="49.7798" x2="26.0549" y2="36.7551" gradientUnits="userSpaceOnUse">
<stop stop-color="#32A071"/>
<stop offset="0.0685" stop-color="#2DA771"/>
<stop offset="0.4762" stop-color="#15CF74"/>
<stop offset="0.8009" stop-color="#06E775"/>
<stop offset="1" stop-color="#00F076"/>
</linearGradient>
</defs>
</svg>
