<svg width="100" height="100" viewBox="0 0 100 100" fill="none" xmlns="http://www.w3.org/2000/svg">
<rect x="50" width="70.7107" height="70.7107" rx="10.5208" transform="rotate(45 50 0)" fill="url(#paint0_linear_2002_13184)"/>
<rect x="14.5833" y="14.5833" width="70.8333" height="70.8333" rx="10.5208" fill="url(#paint1_linear_2002_13184)"/>
<rect x="21.8332" y="21.8332" width="56.3333" height="56.3333" rx="9.46875" fill="url(#paint2_radial_2002_13184)"/>
<rect x="21.8332" y="21.8332" width="56.3333" height="56.3333" rx="9.46875" fill="url(#paint3_radial_2002_13184)" fill-opacity="0.29"/>
<rect x="21.8332" y="21.8332" width="56.3333" height="56.3333" rx="9.46875" fill="url(#paint4_linear_2002_13184)" fill-opacity="0.2" style="mix-blend-mode:multiply"/>
<rect x="21.8332" y="21.8332" width="56.3333" height="56.3333" rx="9.46875" stroke="url(#paint5_linear_2002_13184)" stroke-width="8.41667"/>
<rect opacity="0.47" x="21.2733" y="21.2733" width="57.4535" height="57.4535" rx="14.7589" stroke="url(#paint6_linear_2002_13184)" stroke-width="1.01786"/>
<mask id="mask0_2002_13184" style="mask-type:alpha" maskUnits="userSpaceOnUse" x="26" y="26" width="48" height="48">
<rect x="26.0415" y="26.0415" width="47.9166" height="47.9166" rx="5.26042" fill="url(#paint7_radial_2002_13184)"/>
</mask>
<g mask="url(#mask0_2002_13184)">
<path d="M49.9998 54.7523C44.7503 54.7523 40.4948 50.4967 40.4948 45.2473V36.4464C40.4948 35.7908 40.4948 35.463 40.5904 35.2005C40.7505 34.7605 41.0971 34.4139 41.5372 34.2537C41.7997 34.1582 42.1275 34.1582 42.7831 34.1582H57.2166C57.8721 34.1582 58.1999 34.1582 58.4623 34.2537C58.9024 34.4139 59.249 34.7605 59.4092 35.2005C59.5047 35.463 59.5047 35.7908 59.5047 36.4464V45.2473C59.5047 50.4967 55.2492 54.7523 49.9998 54.7523ZM49.9998 54.7523V59.5047V54.7523ZM59.5047 37.3265H63.4651C64.2032 37.3265 64.5723 37.3265 64.8635 37.4471C65.2516 37.6079 65.56 37.9163 65.7208 38.3045C65.8414 38.5956 65.8414 38.9646 65.8414 39.7028V40.4948C65.8414 41.9681 65.8414 42.7047 65.6795 43.309C65.24 44.9491 63.9589 46.2301 62.319 46.6695C61.7146 46.8315 60.978 46.8315 59.5047 46.8315M40.4948 37.3265H36.5344C35.7963 37.3265 35.4273 37.3265 35.1361 37.4471C34.748 37.6079 34.4396 37.9163 34.2788 38.3045C34.1582 38.5956 34.1582 38.9646 34.1582 39.7028V40.4948C34.1582 41.9681 34.1582 42.7047 34.3201 43.309C34.7596 44.9491 36.0406 46.2301 37.6806 46.6695C38.285 46.8315 39.0216 46.8315 40.4948 46.8315M42.7831 65.8414H57.2166C57.6053 65.8414 57.9206 65.5261 57.9206 65.1374C57.9206 62.0265 55.3987 59.5047 52.2879 59.5047H47.7116C44.6008 59.5047 42.079 62.0265 42.079 65.1374C42.079 65.5261 42.3942 65.8414 42.7831 65.8414Z" fill="url(#paint8_radial_2002_13184)"/>
<path d="M49.9998 54.7523C44.7503 54.7523 40.4948 50.4967 40.4948 45.2473V36.4464C40.4948 35.7908 40.4948 35.463 40.5904 35.2005C40.7505 34.7605 41.0971 34.4139 41.5372 34.2537C41.7997 34.1582 42.1275 34.1582 42.7831 34.1582H57.2166C57.8721 34.1582 58.1999 34.1582 58.4623 34.2537C58.9024 34.4139 59.249 34.7605 59.4092 35.2005C59.5047 35.463 59.5047 35.7908 59.5047 36.4464V45.2473C59.5047 50.4967 55.2492 54.7523 49.9998 54.7523ZM49.9998 54.7523V59.5047M59.5047 37.3265H63.4651C64.2032 37.3265 64.5723 37.3265 64.8635 37.4471C65.2516 37.6079 65.56 37.9163 65.7208 38.3045C65.8414 38.5956 65.8414 38.9646 65.8414 39.7028V40.4948C65.8414 41.9681 65.8414 42.7047 65.6795 43.309C65.24 44.9491 63.9589 46.2301 62.319 46.6695C61.7146 46.8315 60.978 46.8315 59.5047 46.8315M40.4948 37.3265H36.5344C35.7963 37.3265 35.4273 37.3265 35.1361 37.4471C34.748 37.6079 34.4396 37.9163 34.2788 38.3045C34.1582 38.5956 34.1582 38.9646 34.1582 39.7028V40.4948C34.1582 41.9681 34.1582 42.7047 34.3201 43.309C34.7596 44.9491 36.0406 46.2301 37.6806 46.6695C38.285 46.8315 39.0216 46.8315 40.4948 46.8315M42.7831 65.8414H57.2166C57.6053 65.8414 57.9206 65.5261 57.9206 65.1374C57.9206 62.0265 55.3987 59.5047 52.2879 59.5047H47.7116C44.6008 59.5047 42.079 62.0265 42.079 65.1374C42.079 65.5261 42.3942 65.8414 42.7831 65.8414Z" stroke="#F1FFF1" stroke-width="3.33" stroke-linecap="round" stroke-linejoin="round"/>
</g>
<defs>
<linearGradient id="paint0_linear_2002_13184" x1="44.6599" y1="22.6495" x2="110.551" y2="71.4062" gradientUnits="userSpaceOnUse">
<stop stop-color="#FDE047"/>
<stop offset="1" stop-color="#EAB308"/>
</linearGradient>
<linearGradient id="paint1_linear_2002_13184" x1="28.1104" y1="19.432" x2="52.654" y2="84.6297" gradientUnits="userSpaceOnUse">
<stop stop-color="#FDE68A"/>
<stop offset="0.5" stop-color="#FACC15"/>
<stop offset="1" stop-color="#CA8A04"/>
</linearGradient>
<radialGradient id="paint2_radial_2002_13184" cx="0" cy="0" r="1" gradientUnits="userSpaceOnUse" gradientTransform="translate(49.9998 51.0599) rotate(90) scale(38.971 39.4321)">
<stop stop-color="#FEF9C3"/>
<stop offset="1" stop-color="#EAB308"/>
</radialGradient>
<radialGradient id="paint3_radial_2002_13184" cx="0" cy="0" r="1" gradientUnits="userSpaceOnUse" gradientTransform="translate(38.803 41.9186) rotate(-43.9093) scale(26.0153 13.8029)">
<stop stop-color="white"/>
<stop offset="1" stop-color="white" stop-opacity="0"/>
</radialGradient>
<linearGradient id="paint4_linear_2002_13184" x1="49.9998" y1="26.0415" x2="49.9998" y2="76.0784" gradientUnits="userSpaceOnUse">
<stop stop-color="#EAB308" stop-opacity="0"/>
<stop offset="1" stop-color="#EAB308"/>
</linearGradient>
<linearGradient id="paint5_linear_2002_13184" x1="49.9998" y1="26.0415" x2="49.9998" y2="76.0784" gradientUnits="userSpaceOnUse">
<stop stop-color="#EEBC15"/>
<stop offset="1" stop-color="#ECB70D"/>
</linearGradient>
<linearGradient id="paint6_linear_2002_13184" x1="36.8812" y1="18.5644" x2="59.901" y2="82.9208" gradientUnits="userSpaceOnUse">
<stop stop-color="#FDE047"/>
<stop offset="1" stop-color="#A16207"/>
</linearGradient>
<radialGradient id="paint7_radial_2002_13184" cx="0" cy="0" r="1" gradientUnits="userSpaceOnUse" gradientTransform="translate(69.466 80.6964) rotate(-109.604) scale(58.018)">
<stop stop-color="#A16207"/>
<stop offset="1" stop-color="#EDB810"/>
</radialGradient>
<radialGradient id="paint8_radial_2002_13184" cx="0" cy="0" r="1" gradientUnits="userSpaceOnUse" gradientTransform="translate(62.8711 70.2968) rotate(-109.604) scale(38.3623)">
<stop stop-color="#A16207"/>
<stop offset="1" stop-color="#EDB810"/>
</radialGradient>
</defs>
</svg>
