<svg width="1082" height="1080" viewBox="0 0 1082 1080" fill="none" xmlns="http://www.w3.org/2000/svg">
<ellipse cx="550.271" cy="540" rx="531.728" ry="540" fill="#A7F3D0"/>
<path d="M422.296 534.854C420.305 476.964 431.653 424.568 456.338 377.665C481.582 330.743 516.398 293.709 560.787 266.564C605.715 238.832 655.284 224.004 709.493 222.082C771.525 219.882 827.109 233.537 876.243 263.048C925.917 291.971 962.628 334.423 986.375 390.405L871.53 394.478C855.368 363.798 833.611 341.272 806.259 326.899C778.907 312.527 747.628 305.965 712.42 307.214C673.859 308.581 639.792 318.597 610.219 337.261C580.646 355.925 557.763 382.023 541.571 415.556C525.937 449.068 518.872 487.674 520.374 531.375C521.877 575.077 531.577 613.089 549.475 645.412C567.931 677.715 592.56 702.412 623.363 719.503C654.146 736.027 688.818 743.605 727.379 742.238C762.586 740.989 793.339 732.227 819.637 715.952C845.935 699.677 866.092 675.665 880.108 643.914L994.952 639.842C975.108 697.369 941.403 742.319 893.837 774.69C846.829 807.042 792.309 824.318 730.277 826.518C675.509 828.461 625.053 817.465 578.907 793.53C532.743 769.029 495.457 734.268 467.052 689.248C439.205 644.208 424.286 592.743 422.296 534.854Z" fill="#10B981" stroke="#10B981" stroke-width="10"/>
<path d="M97.622 427.648C113.839 404.932 135.927 386.476 163.886 372.278C192.405 357.513 224 350.131 258.67 350.131C299.491 350.131 336.397 360.069 369.39 379.945C402.382 399.821 428.385 428.216 447.397 465.129C466.41 501.474 475.916 543.214 475.916 590.349C475.916 637.484 466.41 679.792 447.397 717.273C428.385 754.186 402.103 783.148 368.551 804.16C335.559 824.604 298.931 834.826 258.67 834.826C222.881 834.826 191.007 827.728 163.048 813.53C135.647 799.333 113.839 781.161 97.622 759.013V827.16H2V208.636L97.622 152.618V427.648ZM378.617 590.349C378.617 557.979 371.906 530.152 358.486 506.869C345.624 483.017 328.289 465.129 306.481 453.203C285.231 440.709 262.304 434.463 237.7 434.463C213.655 434.463 190.728 440.709 168.919 453.203C147.67 465.697 130.335 483.869 116.914 507.721C104.053 531.572 97.622 559.683 97.622 592.053C97.622 624.422 104.053 652.817 116.914 677.236C130.335 701.088 147.67 719.26 168.919 731.754C190.728 744.248 213.655 750.494 237.7 750.494C262.304 750.494 285.231 744.248 306.481 731.754C328.289 718.692 345.624 699.952 358.486 675.533C371.906 651.113 378.617 622.719 378.617 590.349Z" fill="#047857" stroke="#047857" stroke-width="3"/>
</svg>
