<svg width="178" height="169" viewBox="0 0 208 199" fill="none" xmlns="http://www.w3.org/2000/svg">
<path d="M22.4863 158.662V139.838H61.8377V177.486H22.4863V158.662ZM56.2161 158.662V145.216H28.1079V172.108H56.2161V158.662ZM33.7296 158.662V150.595H50.5944V166.73H33.7296V158.662ZM73.0809 174.797V172.108H67.4593V161.351H73.0809V145.216H78.7025V139.838H67.4593V134.459H44.9728V129.081H50.5944V123.703H39.3512V134.459H33.7296V129.081H22.4863V123.703H33.7296V112.946H28.1079V118.324H22.4863V107.567H33.7296V112.946H39.3512V118.324H44.9728V112.946H50.5944V118.324H61.8377V112.946H56.2161V107.567H39.3512V102.189H56.2161V96.8107H39.3512V91.4324H33.7296V96.8107H22.4863V80.6756H28.1079V86.054H61.8377V80.6756H56.2161V75.2972H44.9728V80.6756H39.3512V75.2972H28.1079V64.5405H39.3512V75.2972H44.9728V69.9188H56.2161V64.5405H61.8377V69.9188H56.2161V75.2972H61.8377V80.6756H67.4593V69.9188H73.0809V64.5405H67.4593V48.4053H78.7025V53.7837H84.3242V59.1621H78.7025V64.5405H84.3242V96.8107H73.0809V91.4324H67.4593V96.8107H61.8377V102.189H56.2161V107.567H61.8377V112.946H67.4593V118.324H78.7025V112.946H73.0809V107.567H67.4593V102.189H78.7025V112.946H84.3242V102.189H89.9458V112.946H95.5674V96.8107H101.189V91.4324H106.811V96.8107H101.189V102.189H106.811V107.567H123.676V102.189H118.054V96.8107H112.432V86.054H106.811V80.6756H112.432V75.2972H118.054V69.9188H112.432V64.5405H106.811V75.2972H101.189V69.9188H95.5674V75.2972H89.9458V69.9188H95.5674V64.5405H89.9458V48.4053H84.3242V43.0269H89.9458V48.4053H95.5674V26.8918H101.189V37.6486H112.432V32.2702H106.811V21.5134H118.054V26.8918H112.432V32.2702H123.676V26.8918H129.297V21.5134H140.54V37.6486H129.297V32.2702H123.676V43.0269H129.297V59.1621H134.919V53.7837H140.54V80.6756H151.784V75.2972H146.162V64.5405H157.405V80.6756H168.648V75.2972H163.027V64.5405H168.648V75.2972H174.27V69.9188H185.513V80.6756H179.892V75.2972H174.27V80.6756H168.648V96.8107H174.27V102.189H168.648V107.567H157.405V112.946H151.784V118.324H140.54V112.946H134.919V107.567H129.297V118.324H134.919V123.703H151.784V129.081H163.027V123.703H157.405V118.324H163.027V112.946H168.648V118.324H174.27V123.703H179.892V112.946H174.27V107.567H185.513V123.703H179.892V134.459H185.513V145.216H179.892V161.351H185.513V166.73H168.648V177.486H151.784V172.108H163.027V166.73H151.784V155.973H146.162V166.73H140.54V172.108H146.162V177.486H134.919V161.351H129.297V172.108H123.676V166.73H118.054V145.216H123.676V161.351H129.297V145.216H134.919V134.459H129.297V129.081H123.676V123.703H129.297V118.324H123.676V112.946H118.054V134.459H123.676V139.838H112.432V150.595H106.811V161.351H112.432V166.73H106.811V172.108H118.054V177.486H106.811V172.108H101.189V166.73H95.5674V177.486H73.0809V174.797ZM89.9458 166.73V161.351H95.5674V145.216H84.3242V150.595H89.9458V155.973H78.7025V161.351H73.0809V166.73H78.7025V172.108H89.9458V166.73ZM168.648 161.351V155.973H174.27V145.216H179.892V139.838H174.27V123.703H168.648V139.838H174.27V145.216H168.648V150.595H163.027V166.73H168.648V161.351ZM140.54 158.662V155.973H134.919V161.351H140.54V158.662ZM106.811 147.905V145.216H101.189V150.595H106.811V147.905ZM157.405 142.527V134.459H140.54V150.595H157.405V142.527ZM146.162 142.527V139.838H151.784V145.216H146.162V142.527ZM101.189 137.149V134.459H112.432V129.081H101.189V123.703H95.5674V129.081H101.189V134.459H89.9458V129.081H84.3242V134.459H78.7025V129.081H73.0809V123.703H67.4593V118.324H61.8377V123.703H56.2161V129.081H61.8377V123.703H67.4593V129.081H73.0809V134.459H78.7025V139.838H101.189V137.149ZM84.3242 121.013V118.324H78.7025V123.703H84.3242V121.013ZM112.432 118.324V112.946H101.189V118.324H106.811V123.703H112.432V118.324ZM146.162 110.257V107.567H140.54V112.946H146.162V110.257ZM157.405 104.878V102.189H163.027V86.054H157.405V91.4324H151.784V96.8107H146.162V91.4324H134.919V86.054H129.297V80.6756H134.919V64.5405H129.297V59.1621H123.676V53.7837H118.054V59.1621H112.432V43.0269H118.054V48.4053H123.676V43.0269H118.054V37.6486H112.432V43.0269H106.811V59.1621H112.432V64.5405H118.054V59.1621H123.676V75.2972H118.054V80.6756H112.432V86.054H118.054V96.8107H123.676V91.4324H134.919V96.8107H140.54V102.189H151.784V107.567H157.405V104.878ZM151.784 99.4999V96.8107H157.405V102.189H151.784V99.4999ZM61.8377 94.1215V91.4324H67.4593V86.054H61.8377V91.4324H56.2161V96.8107H61.8377V94.1215ZM78.7025 83.3648V80.6756H73.0809V86.054H78.7025V83.3648ZM78.7025 56.4729V53.7837H73.0809V59.1621H78.7025V56.4729ZM101.189 53.7837V48.4053H95.5674V59.1621H101.189V53.7837ZM134.919 29.581V26.8918H129.297V32.2702H134.919V29.581ZM179.892 174.797V172.108H185.513V177.486H179.892V174.797ZM179.892 96.8107V91.4324H174.27V86.054H179.892V91.4324H185.513V102.189H179.892V96.8107ZM22.4863 40.3378V21.5134H61.8377V59.1621H22.4863V40.3378ZM56.2161 40.3378V26.8918H28.1079V53.7837H56.2161V40.3378ZM33.7296 40.3378V32.2702H50.5944V48.4053H33.7296V40.3378ZM146.162 40.3378V21.5134H185.513V59.1621H146.162V40.3378ZM179.892 40.3378V26.8918H151.784V53.7837H179.892V40.3378ZM157.405 40.3378V32.2702H174.27V48.4053H157.405V40.3378ZM67.4593 40.3378V37.6486H73.0809V43.0269H67.4593V40.3378ZM78.7025 34.9594V32.2702H73.0809V21.5134H78.7025V26.8918H84.3242V21.5134H89.9458V26.8918H84.3242V37.6486H78.7025V34.9594Z" fill="black"/>
</svg>
