<svg width="22" height="23" viewBox="0 0 22 23" fill="none" xmlns="http://www.w3.org/2000/svg">
<path d="M21.0957 21.3819L19.0957 19.4064M10.5957 20.3941C11.8433 20.3941 13.0786 20.1514 14.2312 19.6798C15.3838 19.2083 16.4311 18.5171 17.3132 17.6457C18.1954 16.7744 18.8951 15.7399 19.3726 14.6015C19.85 13.463 20.0957 12.2428 20.0957 11.0105C20.0957 9.77826 19.85 8.55806 19.3726 7.41959C18.8951 6.28112 18.1954 5.24669 17.3132 4.37534C16.4311 3.50399 15.3838 2.8128 14.2312 2.34124C13.0786 1.86967 11.8433 1.62695 10.5957 1.62695C8.07615 1.62695 5.65978 2.61558 3.87819 4.37534C2.09659 6.1351 1.0957 8.52185 1.0957 11.0105C1.0957 13.4992 2.09659 15.886 3.87819 17.6457C5.65978 19.4055 8.07615 20.3941 10.5957 20.3941V20.3941Z" stroke="#334155" stroke-width="1.5" stroke-linecap="round" stroke-linejoin="round"/>
</svg>
