<svg width="577" height="220" viewBox="0 0 577 220" fill="none" xmlns="http://www.w3.org/2000/svg">
<circle cx="115.422" cy="110" r="110" fill="#A7F3D0"/>
<path d="M21.7816 87.1135C25.1363 82.4862 29.7058 78.7266 35.4899 75.8345C41.3896 72.8268 47.9256 71.3229 55.0979 71.3229C63.5427 71.3229 71.1777 73.3474 78.0029 77.3962C84.8281 81.4451 90.2073 87.2292 94.1405 94.7485C98.0737 102.152 100.04 110.655 100.04 120.256C100.04 129.858 98.0737 138.476 94.1405 146.111C90.2073 153.63 84.7703 159.53 77.8294 163.81C71.0041 167.975 63.427 170.057 55.0979 170.057C47.6943 170.057 41.1004 168.611 35.3163 165.719C29.6479 162.827 25.1363 159.125 21.7816 154.614V168.496H2V42.5L21.7816 31.0889V87.1135ZM79.9116 120.256C79.9116 113.662 78.5235 107.994 75.7471 103.251C73.0864 98.3924 69.5003 94.7485 64.9887 92.3192C60.5928 89.7742 55.8498 88.5017 50.7598 88.5017C45.7855 88.5017 41.0426 89.7742 36.531 92.3192C32.1351 94.8641 28.549 98.566 25.7726 103.425C23.1119 108.283 21.7816 114.009 21.7816 120.603C21.7816 127.197 23.1119 132.981 25.7726 137.956C28.549 142.814 32.1351 146.516 36.531 149.061C41.0426 151.606 45.7855 152.879 50.7598 152.879C55.8498 152.879 60.5928 151.606 64.9887 149.061C69.5003 146.4 73.0864 142.583 75.7471 137.609C78.5235 132.634 79.9116 126.85 79.9116 120.256Z" fill="#047857" stroke="#047857" stroke-width="3"/>
<path d="M88.9476 108.952C88.5358 97.1593 90.8833 86.486 95.99 76.9318C101.212 67.3735 108.415 59.8295 117.598 54.3C126.892 48.6509 137.147 45.6305 148.361 45.2389C161.194 44.7907 172.692 47.5724 182.857 53.5838C193.133 59.4755 200.728 68.1233 205.64 79.5269L181.882 80.3566C178.538 74.107 174.037 69.5183 168.379 66.5906C162.721 63.6629 156.25 62.3262 148.966 62.5805C140.989 62.8591 133.942 64.8994 127.824 68.7013C121.706 72.5033 116.972 77.8196 113.622 84.6502C110.388 91.4767 108.927 99.3411 109.237 108.243C109.548 117.145 111.555 124.888 115.257 131.473C119.076 138.053 124.171 143.084 130.543 146.565C136.911 149.931 144.084 151.475 152.061 151.197C159.344 150.942 165.706 149.157 171.147 145.842C176.587 142.527 180.757 137.635 183.656 131.168L207.414 130.338C203.309 142.057 196.337 151.213 186.497 157.807C176.772 164.398 165.493 167.917 152.66 168.365C141.331 168.76 130.893 166.521 121.346 161.645C111.796 156.654 104.083 149.573 98.2065 140.402C92.4457 131.228 89.3594 120.744 88.9476 108.952Z" fill="#10B981" stroke="#10B981" stroke-width="10"/>
<path d="M261.707 76.5807C270.096 76.5807 276.824 79.3178 281.893 84.7919C286.961 90.1805 289.495 97.6219 289.495 107.116V148.942H267.212V110.067C267.212 105.277 265.945 101.556 263.411 98.9049C260.877 96.2534 257.469 94.9276 253.187 94.9276C248.905 94.9276 245.497 96.2534 242.963 98.9049C240.429 101.556 239.162 105.277 239.162 110.067V148.942H216.748V61.3981L239.162 54V86.973C241.434 83.8083 244.536 81.2851 248.468 79.4033C252.4 77.5216 256.813 76.5807 261.707 76.5807Z" fill="#10B981"/>
<path fill-rule="evenodd" clip-rule="evenodd" d="M296.086 95.4798C293.362 100.879 292 107.15 292 114.293C292 121.436 293.362 127.749 296.086 133.231C298.896 138.629 302.684 142.824 307.451 145.814C312.219 148.721 317.497 150.175 323.286 150.175C328.309 150.175 332.693 149.178 336.439 147.185C340.27 145.191 343.249 142.575 345.377 139.335V149.178H365.981L366.597 148.325L367.214 147.523V86.0582L345.377 79.6569V89.4995C343.334 86.2602 340.397 83.6438 336.566 81.6503C332.821 79.6569 328.436 78.6602 323.413 78.6602C317.539 78.6602 312.219 80.1137 307.451 83.0208C302.684 85.9279 298.896 90.0809 296.086 95.4798ZM340.78 101.834C343.845 104.907 345.377 109.102 345.377 114.417C345.377 119.733 343.845 123.928 340.78 127.001C337.801 130.074 334.14 131.611 329.798 131.611C325.457 131.611 321.753 130.074 318.689 127.001C315.709 123.845 314.219 119.609 314.219 114.293C314.219 108.977 315.709 104.824 318.689 101.834C321.753 98.7607 325.457 97.2241 329.798 97.2241C334.14 97.2241 337.801 98.7607 340.78 101.834Z" fill="#10B981"/>
<path fill-rule="evenodd" clip-rule="evenodd" d="M484.008 85.4155C478.722 80.09 471.572 77.4272 462.558 77.4272C457.445 77.4272 452.722 78.6529 448.389 81.1044C444.055 83.5558 440.632 86.7258 438.119 90.6143C435.692 86.3876 432.312 83.1331 427.979 80.8508C423.732 78.5684 418.879 77.4272 413.419 77.4272C408.826 77.4272 404.709 78.3148 401.069 80.09C397.43 81.7806 394.483 84.1053 392.23 87.0639V78.188L370 85.4155V147.709L370.617 148.325L371.233 148.942H375.557H381.115H392.23V110.522C392.23 105.957 393.443 102.449 395.87 99.9974C398.383 97.4614 401.806 96.1934 406.139 96.1934C410.473 96.1934 413.853 97.4614 416.279 99.9974C418.793 102.449 420.049 105.957 420.049 110.522V148.942H442.149V110.522C442.149 105.957 443.362 102.449 445.789 99.9974C448.302 97.4614 451.725 96.1934 456.059 96.1934C460.392 96.1934 463.772 97.4614 466.198 99.9974C468.712 102.449 469.968 105.957 469.968 110.522V148.942H492.068V107.605C492.068 98.1377 489.381 90.7411 484.008 85.4155Z" fill="#10B981"/>
<path d="M518.626 88.2575C520.929 85.0209 524.107 82.4066 528.159 80.4149C532.212 78.4231 536.956 77.4272 542.39 77.4272C548.746 77.4272 554.503 78.8795 559.661 81.7842C564.819 84.6889 568.872 88.8385 571.819 94.2329C574.859 99.6273 576.379 105.893 576.379 113.03C576.379 120.168 574.859 126.475 571.819 131.952C568.872 137.347 564.819 141.538 559.661 144.525C554.503 147.43 548.746 148.882 542.39 148.882C537.048 148.882 532.304 147.887 528.159 145.895C524.107 143.903 520.929 141.33 518.626 138.177V181H495V84.8252L518.626 78.4231V88.2575ZM552.338 113.03C552.338 107.719 550.68 103.569 547.364 100.582C544.14 97.511 540.134 95.9757 535.344 95.9757C530.646 95.9757 526.64 97.511 523.324 100.582C520.1 103.652 518.488 107.843 518.488 113.155C518.488 118.466 520.1 122.657 523.324 125.728C526.64 128.799 530.646 130.334 535.344 130.334C540.041 130.334 544.048 128.799 547.364 125.728C550.68 122.574 552.338 118.342 552.338 113.03Z" fill="#10B981"/>
</svg>
